<svg width="100" height="100" viewBox="0 0 100 100" fill="none" xmlns="http://www.w3.org/2000/svg">
<path d="M64 3H40L24 51H40L25 97.5L80.5 30.5H54.5L64 3Z" fill="#303030"/>
<g style="mix-blend-mode:difference">
<path d="M34.9414 44.1738C34.8359 44.6855 34.6797 45.1738 34.4727 45.6387C34.2656 46.0996 34.0078 46.5059 33.6992 46.8574C33.3906 47.2051 33.0273 47.4824 32.6094 47.6895C32.1953 47.8965 31.7246 48 31.1973 48H28.7129L30.3301 40.3535H32.8145C33.334 40.3535 33.7578 40.459 34.0859 40.6699C34.4141 40.877 34.6582 41.1543 34.8184 41.502C34.9785 41.8496 35.0664 42.2539 35.082 42.7148C35.0977 43.1758 35.0508 43.6621 34.9414 44.1738ZM33.7285 44.1738C33.9199 43.291 33.916 42.6172 33.7168 42.1523C33.5176 41.6836 33.1406 41.4492 32.5859 41.4492H31.3145L30.1543 46.9102H31.4258C31.9766 46.9102 32.4512 46.6719 32.8496 46.1953C33.252 45.7188 33.5449 45.0449 33.7285 44.1738ZM41.1523 45.2754C41.0586 45.7012 40.9062 46.0879 40.6953 46.4355C40.4883 46.7832 40.2324 47.084 39.9277 47.3379C39.627 47.5879 39.2832 47.7832 38.8965 47.9238C38.5137 48.0645 38.1055 48.1348 37.6719 48.1348C37.25 48.1348 36.8789 48.0645 36.5586 47.9238C36.2383 47.7832 35.9785 47.5879 35.7793 47.3379C35.5801 47.084 35.4492 46.7832 35.3867 46.4355C35.3203 46.0879 35.3359 45.7012 35.4336 45.2754C35.5195 44.8613 35.668 44.4785 35.8789 44.127C36.0938 43.7715 36.3516 43.4668 36.6523 43.2129C36.957 42.9551 37.3008 42.7578 37.6836 42.6211C38.0703 42.4805 38.4746 42.4102 38.8965 42.4102C39.3301 42.4102 39.707 42.4805 40.0273 42.6211C40.3477 42.7578 40.6074 42.9551 40.8066 43.2129C41.0059 43.4668 41.1348 43.7715 41.1934 44.127C41.2559 44.4785 41.2422 44.8613 41.1523 45.2754ZM39.9453 45.2754C39.9922 45.0293 40.002 44.7969 39.9746 44.5781C39.9473 44.3555 39.877 44.166 39.7637 44.0098C39.6504 43.8535 39.502 43.7305 39.3184 43.6406C39.1348 43.5469 38.9141 43.5 38.6562 43.5C38.4023 43.5 38.1621 43.5469 37.9355 43.6406C37.7129 43.7305 37.5156 43.8535 37.3438 44.0098C37.1719 44.166 37.0234 44.3555 36.8984 44.5781C36.7773 44.7969 36.6914 45.0293 36.6406 45.2754C36.5859 45.5332 36.5742 45.7676 36.6055 45.9785C36.6367 46.1895 36.7051 46.375 36.8105 46.5352C36.916 46.6953 37.0625 46.8203 37.25 46.9102C37.4375 46.9961 37.6582 47.0391 37.9121 47.0391C38.1699 47.0391 38.4082 46.9961 38.627 46.9102C38.8496 46.8203 39.0508 46.6953 39.2305 46.5352C39.4102 46.375 39.5586 46.1895 39.6758 45.9785C39.7969 45.7676 39.8867 45.5332 39.9453 45.2754ZM48.3066 42.5391L46.3379 48H44.8379L44.9551 44.7129L43.6719 48H42.1719L42.5117 42.5391H43.6953L43.4082 46.1895L44.7676 42.5391H46.0508L45.8691 46.1895L47.1172 42.5391H48.3066ZM53.2461 48H52.0391L52.7422 44.6309C52.832 44.2051 52.8145 43.9102 52.6895 43.7461C52.5645 43.582 52.3516 43.5 52.0508 43.5C51.6016 43.5 51.1973 43.6816 50.8379 44.0449C50.4785 44.4082 50.2305 44.9102 50.0938 45.5508L49.5781 48H48.3652L49.5137 42.5391H50.7266L50.4395 43.9102C50.6621 43.4375 50.9648 43.0703 51.3477 42.8086C51.7344 42.543 52.168 42.4102 52.6484 42.4102C53.207 42.4102 53.6035 42.5918 53.8379 42.9551C54.0762 43.3184 54.1152 43.877 53.9551 44.6309L53.2461 48ZM59.2227 48H55.5488L55.7773 46.9102H56.9785L58.1445 41.4492H56.9434L57.1719 40.3535H59.5859L58.1914 46.9102H59.4512L59.2227 48ZM67.3555 45.2754C67.2617 45.7012 67.1094 46.0879 66.8984 46.4355C66.6914 46.7832 66.4355 47.084 66.1309 47.3379C65.8301 47.5879 65.4863 47.7832 65.0996 47.9238C64.7168 48.0645 64.3086 48.1348 63.875 48.1348C63.4531 48.1348 63.082 48.0645 62.7617 47.9238C62.4414 47.7832 62.1816 47.5879 61.9824 47.3379C61.7832 47.084 61.6523 46.7832 61.5898 46.4355C61.5234 46.0879 61.5391 45.7012 61.6367 45.2754C61.7227 44.8613 61.8711 44.4785 62.082 44.127C62.2969 43.7715 62.5547 43.4668 62.8555 43.2129C63.1602 42.9551 63.5039 42.7578 63.8867 42.6211C64.2734 42.4805 64.6777 42.4102 65.0996 42.4102C65.5332 42.4102 65.9102 42.4805 66.2305 42.6211C66.5508 42.7578 66.8105 42.9551 67.0098 43.2129C67.209 43.4668 67.3379 43.7715 67.3965 44.127C67.459 44.4785 67.4453 44.8613 67.3555 45.2754ZM66.1484 45.2754C66.1953 45.0293 66.2051 44.7969 66.1777 44.5781C66.1504 44.3555 66.0801 44.166 65.9668 44.0098C65.8535 43.8535 65.7051 43.7305 65.5215 43.6406C65.3379 43.5469 65.1172 43.5 64.8594 43.5C64.6055 43.5 64.3652 43.5469 64.1387 43.6406C63.916 43.7305 63.7188 43.8535 63.5469 44.0098C63.375 44.166 63.2266 44.3555 63.1016 44.5781C62.9805 44.7969 62.8945 45.0293 62.8438 45.2754C62.7891 45.5332 62.7773 45.7676 62.8086 45.9785C62.8398 46.1895 62.9082 46.375 63.0137 46.5352C63.1191 46.6953 63.2656 46.8203 63.4531 46.9102C63.6406 46.9961 63.8613 47.0391 64.1152 47.0391C64.373 47.0391 64.6113 46.9961 64.8301 46.9102C65.0527 46.8203 65.2539 46.6953 65.4336 46.5352C65.6133 46.375 65.7617 46.1895 65.8789 45.9785C66 45.7676 66.0898 45.5332 66.1484 45.2754ZM68.0293 46.4297C68.0996 46.1094 68.2461 45.8301 68.4688 45.5918C68.6953 45.3496 68.9648 45.1484 69.2773 44.9883C69.5898 44.8281 69.9336 44.709 70.3086 44.6309C70.6836 44.5488 71.0605 44.5078 71.4395 44.5078C71.6465 44.5078 71.8242 44.5117 71.9727 44.5195C72.1211 44.5273 72.2695 44.5391 72.418 44.5547L72.459 44.3379C72.5215 44.0527 72.457 43.8398 72.2656 43.6992C72.0742 43.5586 71.7988 43.4883 71.4395 43.4883C71.1113 43.4883 70.7676 43.5352 70.4082 43.6289C70.0527 43.7188 69.7031 43.8516 69.3594 44.0273L69.0723 43.0781C69.4707 42.8711 69.8906 42.709 70.332 42.5918C70.7734 42.4707 71.2207 42.4102 71.6738 42.4102C71.9707 42.4102 72.2559 42.4434 72.5293 42.5098C72.8027 42.5762 73.0371 42.6855 73.2324 42.8379C73.4277 42.9902 73.5664 43.1895 73.6484 43.4355C73.7344 43.6777 73.7363 43.9785 73.6543 44.3379L72.8867 48H71.6914L71.8555 47.1973C71.6016 47.4941 71.2695 47.7246 70.8594 47.8887C70.4531 48.0527 70.0332 48.1348 69.5996 48.1348C69.3379 48.1348 69.0957 48.0977 68.873 48.0234C68.6543 47.9531 68.4746 47.8457 68.334 47.7012C68.1934 47.5566 68.0938 47.3789 68.0352 47.168C67.9766 46.9531 67.9746 46.707 68.0293 46.4297ZM70.1387 47.0508C70.3809 47.0508 70.6113 47.0215 70.8301 46.9629C71.0488 46.9004 71.25 46.8164 71.4336 46.7109C71.6211 46.6016 71.7754 46.4707 71.8965 46.3184C72.0215 46.166 72.1035 45.998 72.1426 45.8145L72.1953 45.6094C72.0078 45.5781 71.8301 45.5605 71.6621 45.5566C71.4941 45.5527 71.3477 45.5508 71.2227 45.5508C70.6289 45.5508 70.1641 45.6289 69.8281 45.7852C69.4922 45.9414 69.2969 46.1348 69.2422 46.3652C69.1445 46.8223 69.4434 47.0508 70.1387 47.0508ZM79.4492 48H78.2422L78.3359 47.4961C78.0625 47.7031 77.793 47.8613 77.5273 47.9707C77.2656 48.0801 76.9824 48.1348 76.6777 48.1348C76.3262 48.1348 76.0156 48.0645 75.7461 47.9238C75.4805 47.7832 75.2656 47.5879 75.1016 47.3379C74.9375 47.084 74.832 46.7812 74.7852 46.4297C74.7344 46.0781 74.7539 45.6934 74.8438 45.2754C74.9297 44.8613 75.0723 44.4785 75.2715 44.127C75.4746 43.7715 75.709 43.4688 75.9746 43.2188C76.2441 42.9648 76.5449 42.7676 76.877 42.627C77.209 42.4824 77.5508 42.4102 77.9023 42.4102C78.207 42.4102 78.4668 42.4629 78.6816 42.5684C78.9004 42.6699 79.1016 42.8242 79.2852 43.0312L79.6309 41.4492H78.5762L78.8047 40.3535H81.0723L79.4492 48ZM79.0801 43.9922C78.9746 43.832 78.8164 43.7109 78.6055 43.6289C78.3945 43.543 78.1836 43.5 77.9727 43.5C77.5195 43.5 77.1133 43.6641 76.7539 43.9922C76.3984 44.3203 76.166 44.748 76.0566 45.2754C75.9434 45.8027 75.9961 46.2285 76.2148 46.5527C76.4375 46.877 76.7773 47.0391 77.2344 47.0391C77.4414 47.0391 77.666 46.998 77.9082 46.916C78.1543 46.8301 78.3652 46.707 78.541 46.5469L79.0801 43.9922ZM82.4258 45.7324C82.4023 46.1074 82.5137 46.4199 82.7598 46.6699C83.0098 46.916 83.3867 47.0391 83.8906 47.0391C84.2812 47.0391 84.6348 46.9785 84.9512 46.8574C85.2676 46.7324 85.5508 46.5684 85.8008 46.3652L86.2402 47.2207C85.8184 47.5723 85.3965 47.8125 84.9746 47.9414C84.5566 48.0703 84.1152 48.1348 83.6504 48.1348C83.2246 48.1348 82.8457 48.0645 82.5137 47.9238C82.1816 47.7832 81.9102 47.5879 81.6992 47.3379C81.4883 47.084 81.3438 46.7832 81.2656 46.4355C81.1836 46.0879 81.1914 45.7012 81.2891 45.2754C81.375 44.8613 81.5234 44.4805 81.7344 44.1328C81.9492 43.7812 82.209 43.4785 82.5137 43.2246C82.8223 42.9668 83.168 42.7676 83.5508 42.627C83.9375 42.4824 84.3418 42.4102 84.7637 42.4102C85.2051 42.4102 85.5879 42.4863 85.9121 42.6387C86.2363 42.7871 86.4961 43.0039 86.6914 43.2891C86.8867 43.5742 87.0117 43.9238 87.0664 44.3379C87.125 44.748 87.1016 45.2129 86.9961 45.7324H82.4258ZM85.8594 44.666C85.8672 44.3145 85.7422 44.0332 85.4844 43.8223C85.2305 43.6074 84.9102 43.5 84.5234 43.5C84.1406 43.5 83.7754 43.6074 83.4277 43.8223C83.0801 44.0332 82.8379 44.3145 82.7012 44.666H85.8594ZM93.5879 43.834C93.459 43.7637 93.3223 43.7109 93.1777 43.6758C93.0332 43.6367 92.8652 43.6172 92.6738 43.6172C92.4004 43.6172 92.1367 43.6582 91.8828 43.7402C91.6328 43.8184 91.4043 43.9375 91.1973 44.0977C90.9902 44.2578 90.8145 44.459 90.6699 44.7012C90.5254 44.9395 90.418 45.2227 90.3477 45.5508L90.0547 46.9102H91.2793L91.0508 48H87.3828L87.6113 46.9102H88.8477L89.5391 43.6348H88.3027L88.5312 42.5391H90.9805L90.6934 43.9102C91.0059 43.3633 91.3809 42.9766 91.8184 42.75C92.2598 42.5234 92.748 42.4102 93.2832 42.4102C93.4512 42.4102 93.623 42.4277 93.7988 42.4629C93.9746 42.498 94.1387 42.5605 94.291 42.6504L93.5879 43.834Z" fill="#FF9900"/>
</g>
</svg>
