<svg width="512" height="512" viewBox="0 0 512 512" fill="none" xmlns="http://www.w3.org/2000/svg">
<rect x="56" y="56" width="400" height="400" rx="12" fill="#0F0F0F"/>
<path d="M339.715 197.356H268.776L294.963 117.565C297.422 108.221 290.353 99 280.701 99H192.181C184.804 99 178.534 104.471 177.55 111.786L157.879 259.321C156.711 268.173 163.596 276.041 172.509 276.041H245.478L217.139 395.606C214.926 404.95 222.056 413.74 231.462 413.74C236.625 413.74 241.543 411.035 244.248 406.363L352.44 219.486C358.157 209.712 351.088 197.356 339.715 197.356Z" fill="white"/>
<path d="M149.314 245.824C149.374 245.32 149.57 244.938 149.901 244.678C150.232 244.418 150.632 244.316 151.101 244.373L153.917 244.711L150.923 269.637L149.333 269.446C149.003 269.407 148.672 269.297 148.341 269.116C148.01 268.935 147.715 268.679 147.455 268.348L136.872 254.936C135.983 253.824 135.127 252.805 134.304 251.877C133.463 250.947 132.608 250.139 131.738 249.453C130.868 248.766 129.974 248.209 129.056 247.782C128.12 247.352 127.105 247.071 126.01 246.94C124.914 246.808 123.938 246.867 123.079 247.117C122.203 247.364 121.459 247.76 120.847 248.303C120.237 248.83 119.752 249.486 119.394 250.271C119.017 251.055 118.773 251.916 118.66 252.855C118.545 253.811 118.579 254.705 118.761 255.538C118.943 256.371 119.249 257.131 119.677 257.817C120.091 258.484 120.612 259.067 121.24 259.565C121.867 260.064 122.579 260.449 123.375 260.721C123.959 261.003 124.333 261.339 124.498 261.729C124.647 262.099 124.64 262.601 124.476 263.234L123.767 265.608C122.093 265.161 120.646 264.511 119.425 263.659C118.19 262.787 117.193 261.768 116.434 260.601C115.676 259.417 115.154 258.111 114.867 256.684C114.563 255.254 114.507 253.74 114.699 252.141C114.889 250.559 115.301 249.11 115.935 247.793C116.57 246.476 117.399 245.368 118.424 244.468C119.432 243.566 120.613 242.906 121.969 242.487C123.324 242.068 124.818 241.956 126.452 242.153C127.843 242.32 129.113 242.684 130.262 243.245C131.394 243.804 132.456 244.505 133.448 245.347C134.44 246.189 135.393 247.141 136.306 248.203C137.22 249.247 138.137 250.354 139.054 251.522L147.935 262.587C147.827 261.868 147.764 261.147 147.745 260.421C147.709 259.694 147.731 259 147.81 258.34L149.314 245.824Z" fill="white"/>
<path d="M135.714 216.922C135.886 217.087 136.015 217.245 136.101 217.398C136.187 217.551 136.213 217.748 136.181 217.991C136.146 218.252 136.004 218.524 135.754 218.809C135.487 219.091 135.192 219.449 134.869 219.883C134.548 220.299 134.239 220.832 133.94 221.481C133.627 222.111 133.405 222.911 133.276 223.883C133.102 225.185 133.184 226.361 133.52 227.413C133.84 228.462 134.388 229.383 135.166 230.175C135.945 230.951 136.928 231.594 138.114 232.105C139.302 232.599 140.66 232.948 142.187 233.152C143.784 233.365 145.231 233.372 146.529 233.174C147.81 232.974 148.919 232.601 149.857 232.055C150.781 231.489 151.53 230.768 152.106 229.891C152.668 228.994 153.027 227.956 153.184 226.776C153.334 225.648 153.328 224.702 153.165 223.938C152.985 223.173 152.761 222.533 152.493 222.021C152.228 221.491 151.987 221.053 151.768 220.705C151.534 220.339 151.438 219.999 151.48 219.687C151.531 219.305 151.718 219.03 152.04 218.861L153.906 217.785C154.541 218.452 155.062 219.184 155.468 219.98C155.874 220.776 156.194 221.622 156.428 222.519C156.646 223.396 156.772 224.305 156.806 225.245C156.839 226.186 156.793 227.133 156.665 228.088C156.445 229.736 155.937 231.232 155.14 232.574C154.345 233.898 153.306 235.005 152.021 235.894C150.72 236.78 149.188 237.406 147.426 237.771C145.664 238.137 143.707 238.176 141.555 237.889C139.594 237.628 137.817 237.117 136.222 236.357C134.631 235.579 133.305 234.59 132.247 233.389C131.173 232.169 130.4 230.75 129.926 229.133C129.456 227.498 129.353 225.683 129.619 223.687C129.867 221.83 130.388 220.239 131.183 218.915C131.963 217.57 132.972 216.424 134.211 215.477L135.714 216.922Z" fill="white"/>
<path d="M135.96 206.136C134.913 204.848 134.125 203.471 133.596 202.006C133.068 200.54 132.922 198.913 133.161 197.126C133.353 195.685 133.765 194.451 134.396 193.422C135.013 192.374 135.812 191.545 136.795 190.934C137.762 190.303 138.887 189.879 140.17 189.662C141.453 189.444 142.841 189.435 144.333 189.634L161.123 191.873L160.502 196.532L143.712 194.294C141.716 194.027 140.11 194.281 138.894 195.055C137.663 195.81 136.924 197.115 136.677 198.972C136.494 200.343 136.652 201.671 137.152 202.957C137.654 204.225 138.402 205.437 139.396 206.594L158.815 209.183L158.194 213.843L119.85 208.73L120.472 204.071L135.96 206.136Z" fill="white"/>
<path d="M144.251 165.014C142.973 165.727 142.041 166.556 141.456 167.503C140.853 168.447 140.468 169.543 140.302 170.793C139.975 173.24 140.601 175.24 142.177 176.792C143.754 178.345 146.165 179.337 149.411 179.77C151.129 179.999 152.623 180.048 153.895 179.918C155.149 179.784 156.213 179.485 157.088 179.019C157.945 178.55 158.612 177.924 159.087 177.139C159.563 176.355 159.871 175.433 160.012 174.375C160.216 172.848 160.046 171.474 159.502 170.253C158.96 169.015 158.12 167.835 156.98 166.711L144.251 165.014ZM126.621 157.948L164.965 163.06L164.597 165.819C164.509 166.479 164.132 166.852 163.467 166.94L160.21 166.93C161.413 168.238 162.335 169.668 162.976 171.22C163.617 172.771 163.811 174.493 163.559 176.384C163.358 177.894 162.889 179.227 162.152 180.383C161.397 181.536 160.398 182.471 159.155 183.189C157.911 183.906 156.416 184.387 154.671 184.631C152.925 184.875 150.959 184.851 148.772 184.56C146.828 184.301 145.058 183.8 143.462 183.057C141.848 182.312 140.49 181.371 139.387 180.235C138.284 179.099 137.48 177.782 136.973 176.284C136.451 174.766 136.308 173.122 136.544 171.352C136.76 169.738 137.221 168.395 137.929 167.324C138.622 166.233 139.515 165.301 140.607 164.528L126.004 162.581L126.621 157.948Z" fill="white"/>
<path d="M140.635 141.066C140.892 139.14 141.444 137.447 142.293 135.988C143.141 134.529 144.227 133.332 145.553 132.396C146.879 131.46 148.422 130.818 150.182 130.47C151.926 130.102 153.831 130.056 155.896 130.331C157.979 130.609 159.814 131.154 161.401 131.966C162.99 132.76 164.302 133.783 165.337 135.034C166.371 136.284 167.106 137.725 167.542 139.355C167.961 140.983 168.042 142.76 167.785 144.686C167.526 146.63 166.98 148.341 166.147 149.819C165.299 151.278 164.212 152.476 162.886 153.412C161.56 154.348 160.025 154.999 158.281 155.367C156.538 155.718 154.626 155.754 152.543 155.477C150.478 155.201 148.651 154.666 147.061 153.871C145.457 153.057 144.137 152.024 143.103 150.774C142.069 149.523 141.333 148.083 140.897 146.453C140.463 144.805 140.376 143.01 140.635 141.066ZM164.167 144.204C164.514 141.601 163.906 139.541 162.341 138.026C160.76 136.508 158.407 135.541 155.284 135.124C152.143 134.705 149.61 135.021 147.686 136.072C145.762 137.122 144.627 138.949 144.28 141.552C144.104 142.871 144.175 144.055 144.495 145.104C144.816 146.136 145.358 147.039 146.121 147.811C146.886 148.567 147.871 149.193 149.076 149.689C150.267 150.166 151.643 150.508 153.205 150.717C156.328 151.133 158.852 150.816 160.776 149.766C162.685 148.695 163.815 146.841 164.167 144.204Z" fill="white"/>
<path d="M148.281 86.903L173.512 98.9569L173.023 102.627C172.962 103.078 172.626 103.352 172.013 103.446L153.352 106.893C152.934 106.978 152.52 107.038 152.109 107.072C151.681 107.103 151.262 107.135 150.851 107.169C151.239 107.309 151.635 107.45 152.04 107.592C152.428 107.732 152.82 107.899 153.218 108.094L170.284 116.41C170.853 116.645 171.102 117.031 171.03 117.569L170.565 121.057L143.058 126.079L143.544 122.435C143.592 122.071 143.728 121.78 143.951 121.562C144.177 121.327 144.426 121.184 144.698 121.132L162.343 118.345C163.632 118.216 164.843 118.139 165.977 118.114C165.425 117.881 164.864 117.648 164.295 117.413C163.728 117.161 163.154 116.899 162.572 116.627L146.239 108.779C145.99 108.658 145.793 108.481 145.647 108.25C145.503 108.001 145.452 107.721 145.494 107.408L145.765 105.378C145.811 105.031 145.936 104.756 146.14 104.554C146.343 104.351 146.581 104.224 146.853 104.172L164.655 101.008C165.287 100.898 165.909 100.805 166.52 100.727C167.131 100.65 167.732 100.58 168.323 100.517C167.762 100.354 167.203 100.173 166.647 99.9756C166.075 99.7581 165.487 99.5296 164.884 99.2901L148.599 91.8731C148.333 91.7493 148.129 91.5544 147.988 91.2883C147.829 91.0199 147.772 90.7208 147.816 90.3911L148.281 86.903Z" fill="white"/>
<path d="M193.147 73.2579C193.725 72.6101 194.338 72.0236 194.986 71.4984C195.633 70.9731 196.316 70.5267 197.034 70.159C197.769 69.7739 198.54 69.485 199.345 69.2924C200.168 69.0823 201.052 68.9773 201.997 68.9773C203.451 68.9773 204.729 69.2224 205.832 69.7126C206.952 70.1853 207.88 70.8681 208.615 71.761C209.368 72.6363 209.937 73.6955 210.322 74.9386C210.707 76.1816 210.9 77.5559 210.9 79.0616V96H206.199V79.0616C206.199 77.0482 205.735 75.4901 204.807 74.3871C203.897 73.2666 202.505 72.7064 200.632 72.7064C199.249 72.7064 197.953 73.039 196.745 73.7043C195.555 74.3696 194.452 75.2712 193.436 76.4092V96H188.736V69.3975H191.545C192.211 69.3975 192.622 69.7214 192.78 70.3691L193.147 73.2579Z" fill="white"/>
<path d="M222.793 57.3173V96H218.118V57.3173H222.793Z" fill="white"/>
<path d="M242.621 68.9773C244.565 68.9773 246.315 69.3012 247.874 69.949C249.432 70.5967 250.762 71.5159 251.865 72.7064C252.968 73.8969 253.809 75.3412 254.386 77.0395C254.982 78.7202 255.279 80.6022 255.279 82.6856C255.279 84.7865 254.982 86.6773 254.386 88.358C253.809 90.0387 252.968 91.4743 251.865 92.6648C250.762 93.8553 249.432 94.7745 247.874 95.4223C246.315 96.0525 244.565 96.3677 242.621 96.3677C240.661 96.3677 238.892 96.0525 237.317 95.4223C235.758 94.7745 234.428 93.8553 233.325 92.6648C232.222 91.4743 231.373 90.0387 230.778 88.358C230.2 86.6773 229.911 84.7865 229.911 82.6856C229.911 80.6022 230.2 78.7202 230.778 77.0395C231.373 75.3412 232.222 73.8969 233.325 72.7064C234.428 71.5159 235.758 70.5967 237.317 69.949C238.892 69.3012 240.661 68.9773 242.621 68.9773ZM242.621 92.7174C245.248 92.7174 247.208 91.842 248.504 90.0912C249.799 88.323 250.447 85.8632 250.447 82.7119C250.447 79.543 249.799 77.0745 248.504 75.3062C247.208 73.538 245.248 72.6538 242.621 72.6538C241.291 72.6538 240.127 72.8814 239.129 73.3366C238.148 73.7918 237.325 74.4484 236.66 75.3062C236.012 76.1641 235.522 77.2233 235.19 78.4838C234.874 79.7268 234.717 81.1362 234.717 82.7119C234.717 85.8632 235.365 88.323 236.66 90.0912C237.973 91.842 239.96 92.7174 242.621 92.7174Z" fill="white"/>
<path d="M275.05 84.0249C272.897 84.095 271.059 84.27 269.535 84.5501C268.03 84.8128 266.795 85.1629 265.833 85.6006C264.887 86.0383 264.196 86.5547 263.758 87.15C263.338 87.7452 263.128 88.4105 263.128 89.1458C263.128 89.8461 263.241 90.4501 263.469 90.9579C263.697 91.4656 264.003 91.8858 264.388 92.2184C264.791 92.5335 265.255 92.7699 265.78 92.9274C266.323 93.0675 266.901 93.1375 267.513 93.1375C268.336 93.1375 269.089 93.0588 269.772 92.9012C270.455 92.7261 271.094 92.481 271.689 92.1659C272.302 91.8507 272.879 91.4743 273.422 91.0366C273.982 90.599 274.525 90.1 275.05 89.5398V84.0249ZM259.95 73.1528C261.421 71.7347 263.005 70.6755 264.703 69.9752C266.402 69.2749 268.284 68.9248 270.349 68.9248C271.838 68.9248 273.159 69.1699 274.315 69.6601C275.47 70.1503 276.442 70.8331 277.23 71.7084C278.018 72.5838 278.613 73.643 279.016 74.886C279.418 76.1291 279.62 77.4947 279.62 78.9828V96H277.545C277.09 96 276.74 95.93 276.495 95.7899C276.249 95.6323 276.057 95.3347 275.917 94.897L275.392 92.376C274.691 93.0237 274.009 93.6015 273.343 94.1092C272.678 94.5994 271.978 95.0196 271.242 95.3697C270.507 95.7024 269.719 95.9562 268.879 96.1313C268.056 96.3239 267.137 96.4202 266.121 96.4202C265.089 96.4202 264.117 96.2801 263.206 96C262.296 95.7024 261.499 95.2647 260.817 94.6869C260.151 94.1092 259.617 93.3826 259.215 92.5073C258.83 91.6144 258.637 90.5639 258.637 89.3559C258.637 88.3055 258.926 87.2988 259.504 86.3359C260.081 85.3555 261.018 84.4889 262.314 83.736C263.609 82.9832 265.299 82.3705 267.382 81.8978C269.465 81.4076 272.021 81.1274 275.05 81.0574V78.9828C275.05 76.9169 274.604 75.3587 273.711 74.3083C272.818 73.2403 271.514 72.7064 269.798 72.7064C268.643 72.7064 267.671 72.8552 266.883 73.1528C266.113 73.4329 265.439 73.7568 264.861 74.1245C264.301 74.4746 263.81 74.7985 263.39 75.0961C262.988 75.3763 262.585 75.5163 262.182 75.5163C261.867 75.5163 261.596 75.4375 261.368 75.28C261.141 75.1049 260.948 74.8948 260.79 74.6497L259.95 73.1528Z" fill="white"/>
<path d="M311.592 116.179C312.727 115.256 313.501 114.278 313.914 113.244C314.344 112.21 314.533 111.063 314.48 109.804C314.378 107.337 313.415 105.476 311.593 104.22C309.771 102.964 307.225 102.405 303.953 102.541C302.222 102.613 300.741 102.823 299.511 103.172C298.299 103.521 297.303 104 296.522 104.611C295.759 105.221 295.212 105.954 294.879 106.809C294.547 107.663 294.403 108.624 294.447 109.691C294.511 111.231 294.917 112.554 295.664 113.662C296.412 114.788 297.444 115.805 298.761 116.714L311.592 116.179ZM330.179 120.084L291.53 121.693L291.414 118.912C291.387 118.247 291.693 117.814 292.333 117.612L295.543 117.058C294.131 115.978 292.975 114.729 292.075 113.312C291.175 111.895 290.685 110.234 290.606 108.327C290.542 106.805 290.773 105.411 291.299 104.145C291.842 102.879 292.664 101.784 293.764 100.862C294.865 99.9403 296.254 99.2079 297.931 98.6649C299.608 98.122 301.548 97.8046 303.752 97.7128C305.712 97.6313 307.542 97.8179 309.243 98.2727C310.961 98.7269 312.462 99.4178 313.745 100.346C315.028 101.274 316.048 102.431 316.807 103.819C317.584 105.224 318.009 106.818 318.084 108.602C318.151 110.229 317.93 111.631 317.418 112.809C316.924 114.004 316.207 115.076 315.265 116.026L329.985 115.414L330.179 120.084Z" fill="white"/>
<path d="M296.023 150.586C297.055 150.925 298.044 151.083 298.99 151.062C299.948 151.063 300.828 150.882 301.629 150.519C302.441 150.177 303.144 149.662 303.739 148.972C304.35 148.289 304.823 147.439 305.156 146.425C305.854 144.295 305.785 142.402 304.947 140.745C304.12 139.11 302.657 137.783 300.56 136.763L296.023 150.586ZM282.992 150.289C282.507 149.522 282.14 148.674 281.892 147.745C281.661 146.822 281.532 145.867 281.505 144.882C281.473 143.913 281.535 142.938 281.691 141.958C281.831 140.972 282.05 140.021 282.351 139.106C282.924 137.36 283.744 135.842 284.813 134.552C285.892 133.285 287.174 132.296 288.66 131.586C290.158 130.898 291.844 130.531 293.721 130.483C295.598 130.436 297.626 130.769 299.805 131.485C301.568 132.063 303.127 132.87 304.483 133.904C305.833 134.956 306.899 136.172 307.681 137.552C308.479 138.938 308.954 140.467 309.105 142.138C309.274 143.815 309.058 145.568 308.457 147.398C307.96 148.911 307.244 150.224 306.308 151.336C305.383 152.469 304.285 153.344 303.015 153.959C301.755 154.596 300.332 154.948 298.743 155.016C297.171 155.09 295.487 154.832 293.69 154.243C292.991 154.013 292.55 153.786 292.367 153.56C292.183 153.333 292.159 153.012 292.296 152.597L297.839 135.704C296.226 135.23 294.766 134.99 293.46 134.985C292.148 134.997 290.978 135.221 289.95 135.658C288.939 136.1 288.075 136.738 287.359 137.571C286.66 138.411 286.114 139.429 285.721 140.627C285.355 141.741 285.166 142.739 285.154 143.619C285.152 144.522 285.206 145.313 285.314 145.994C285.422 146.674 285.539 147.246 285.662 147.711C285.798 148.198 285.819 148.582 285.726 148.865C285.606 149.231 285.372 149.467 285.023 149.574L282.992 150.289Z" fill="white"/>
<path d="M296.421 165.628C297.889 166.994 298.914 168.418 299.497 169.899C300.096 171.385 300.12 172.968 299.569 174.649C299.394 175.181 299.169 175.669 298.895 176.113C298.614 176.574 298.287 176.955 297.912 177.256L294.7 175.842C294.316 175.606 294.19 175.288 294.321 174.889C294.398 174.656 294.56 174.331 294.807 173.915C295.054 173.499 295.271 173.008 295.456 172.442C295.718 171.643 295.837 170.89 295.811 170.181C295.78 169.49 295.614 168.818 295.312 168.166C295.021 167.536 294.6 166.91 294.049 166.286C293.509 165.686 292.859 165.085 292.097 164.485L276.128 159.244L277.594 154.778L302.87 163.073L302.035 165.618C301.877 166.101 301.676 166.403 301.433 166.526C301.19 166.649 300.833 166.67 300.362 166.589L296.421 165.628Z" fill="white"/>
</svg>
